<svg xmlns="http://www.w3.org/2000/svg" xmlns:xlink="http://www.w3.org/1999/xlink" zoomAndPan="magnify" preserveAspectRatio="xMidYMid meet" version="1.0" viewBox="10.54 147.35 357.55 78.89"><defs><g/><clipPath id="9f8dbec6bf"><path d="M 10.542969 152.390625 L 51.082031 152.390625 L 51.082031 224.785156 L 10.542969 224.785156 Z M 10.542969 152.390625 " clip-rule="nonzero"/></clipPath><clipPath id="9a0479ee53"><path d="M 293.597656 151.746094 L 363.300781 151.746094 L 363.300781 221.449219 L 293.597656 221.449219 Z M 293.597656 151.746094 " clip-rule="nonzero"/></clipPath><clipPath id="735ecf5fda"><path d="M 292.4375 150.589844 L 364.457031 150.589844 L 364.457031 222.605469 L 292.4375 222.605469 Z M 292.4375 150.589844 " clip-rule="nonzero"/></clipPath></defs><g clip-path="url(#9f8dbec6bf)"><path fill="#38bdf8" d="M 10.585938 188.453125 C 10.585938 188.453125 24.113281 188.453125 24.113281 188.453125 C 24.113281 188.453125 10.585938 224.519531 10.585938 224.519531 C 10.585938 224.519531 51.164062 174.925781 51.164062 174.925781 C 51.164062 174.925781 33.128906 174.867188 33.128906 174.867188 C 33.128906 174.867188 42.148438 152.382812 42.148438 152.382812 C 42.148438 152.382812 19.605469 152.382812 19.605469 152.382812 C 19.605469 152.382812 10.585938 188.453125 10.585938 188.453125 Z M 10.585938 188.453125 " fill-opacity="1" fill-rule="nonzero"/></g><g clip-path="url(#9a0479ee53)"><path stroke-linecap="round" transform="matrix(0.396467, 0, 0, 0.396467, 292.442916, 150.593515)" fill="none" stroke-linejoin="round" d="M 5.365882 5.370282 L 177.264903 5.370282 L 177.264903 177.259451 L 5.365882 177.259451 Z M 5.365882 5.370282 " stroke="#000000" stroke-width="10.742" stroke-opacity="1" stroke-miterlimit="10"/></g><g clip-path="url(#735ecf5fda)"><path stroke-linecap="butt" transform="matrix(0.965266, 0, 0, 0.965266, 292.437876, 150.588492)" fill="none" stroke-linejoin="miter" d="M -0.000389216 0.00140069 L -0.000389216 74.60843 L 74.610687 74.60843 L 74.610687 0.00140069 L -0.000389216 0.00140069 " stroke="#000000" stroke-width="3.107952" stroke-opacity="1" stroke-miterlimit="4"/></g><g fill="#000000" fill-opacity="1"><g transform="translate(58.726959, 208.354116)"><g><path d="M 26.578125 -1.34375 C 25.597656 -0.726562 24.40625 -0.257812 23 0.0625 C 21.59375 0.382812 20.097656 0.546875 18.515625 0.546875 C 14.191406 0.546875 10.867188 -0.507812 8.546875 -2.625 C 6.234375 -4.738281 5.078125 -7.894531 5.078125 -12.09375 L 5.078125 -23.21875 L 0.25 -23.21875 L 0.25 -31.890625 L 5.078125 -31.890625 L 5.078125 -40.5 L 16.671875 -40.5 L 16.671875 -31.890625 L 24.25 -31.890625 L 24.25 -23.21875 L 16.671875 -23.21875 L 16.671875 -12.21875 C 16.671875 -11.039062 16.988281 -10.113281 17.625 -9.4375 C 18.257812 -8.769531 19.101562 -8.4375 20.15625 -8.4375 C 21.5 -8.4375 22.679688 -8.78125 23.703125 -9.46875 Z M 26.578125 -1.34375 "/></g></g></g><g fill="#000000" fill-opacity="1"><g transform="translate(79.804515, 208.354116)"><g><path d="M 25.296875 -33.65625 C 29.410156 -33.65625 32.71875 -32.429688 35.21875 -29.984375 C 37.726562 -27.546875 38.984375 -23.863281 38.984375 -18.9375 L 38.984375 0 L 27.375 0 L 27.375 -17.046875 C 27.375 -21.566406 25.5625 -23.828125 21.9375 -23.828125 C 19.9375 -23.828125 18.332031 -23.175781 17.125 -21.875 C 15.925781 -20.570312 15.328125 -18.613281 15.328125 -16 L 15.328125 0 L 3.734375 0 L 3.734375 -45.328125 L 15.328125 -45.328125 L 15.328125 -30.0625 C 16.597656 -31.238281 18.085938 -32.128906 19.796875 -32.734375 C 21.503906 -33.347656 23.335938 -33.65625 25.296875 -33.65625 Z M 25.296875 -33.65625 "/></g></g></g><g fill="#000000" fill-opacity="1"><g transform="translate(116.094584, 208.354116)"><g><path d="M 38.546875 -33.109375 L 38.546875 0 L 27.5 0 L 27.5 -3.546875 C 26.269531 -2.203125 24.800781 -1.179688 23.09375 -0.484375 C 21.382812 0.203125 19.570312 0.546875 17.65625 0.546875 C 13.375 0.546875 9.960938 -0.710938 7.421875 -3.234375 C 4.878906 -5.765625 3.609375 -9.550781 3.609375 -14.59375 L 3.609375 -33.109375 L 15.21875 -33.109375 L 15.21875 -16.5 C 15.21875 -14.007812 15.679688 -12.191406 16.609375 -11.046875 C 17.546875 -9.910156 18.910156 -9.34375 20.703125 -9.34375 C 22.535156 -9.34375 24.03125 -9.984375 25.1875 -11.265625 C 26.351562 -12.554688 26.9375 -14.523438 26.9375 -17.171875 L 26.9375 -33.109375 Z M 38.546875 -33.109375 "/></g></g></g><g fill="#000000" fill-opacity="1"><g transform="translate(152.14027, 208.354116)"><g><path d="M 25.296875 -33.65625 C 29.410156 -33.65625 32.71875 -32.429688 35.21875 -29.984375 C 37.726562 -27.546875 38.984375 -23.863281 38.984375 -18.9375 L 38.984375 0 L 27.375 0 L 27.375 -17.046875 C 27.375 -21.566406 25.5625 -23.828125 21.9375 -23.828125 C 19.9375 -23.828125 18.332031 -23.175781 17.125 -21.875 C 15.925781 -20.570312 15.328125 -18.613281 15.328125 -16 L 15.328125 0 L 3.734375 0 L 3.734375 -33.109375 L 14.78125 -33.109375 L 14.78125 -29.515625 C 16.082031 -30.859375 17.628906 -31.882812 19.421875 -32.59375 C 21.210938 -33.300781 23.171875 -33.65625 25.296875 -33.65625 Z M 25.296875 -33.65625 "/></g></g></g><g fill="#000000" fill-opacity="1"><g transform="translate(188.430345, 208.354116)"><g><path d="M 38.921875 -45.328125 L 38.921875 0 L 27.859375 0 L 27.859375 -3.296875 C 25.703125 -0.734375 22.460938 0.546875 18.140625 0.546875 C 15.128906 0.546875 12.378906 -0.15625 9.890625 -1.5625 C 7.410156 -2.96875 5.445312 -4.972656 4 -7.578125 C 2.550781 -10.179688 1.828125 -13.195312 1.828125 -16.625 C 1.828125 -20.039062 2.550781 -23.039062 4 -25.625 C 5.445312 -28.21875 7.410156 -30.203125 9.890625 -31.578125 C 12.378906 -32.960938 15.128906 -33.65625 18.140625 -33.65625 C 22.097656 -33.65625 25.15625 -32.515625 27.3125 -30.234375 L 27.3125 -45.328125 Z M 20.59375 -8.671875 C 22.582031 -8.671875 24.226562 -9.375 25.53125 -10.78125 C 26.84375 -12.1875 27.5 -14.132812 27.5 -16.625 C 27.5 -19.0625 26.851562 -20.972656 25.5625 -22.359375 C 24.28125 -23.742188 22.625 -24.4375 20.59375 -24.4375 C 18.550781 -24.4375 16.878906 -23.742188 15.578125 -22.359375 C 14.273438 -20.972656 13.625 -19.0625 13.625 -16.625 C 13.625 -14.132812 14.273438 -12.1875 15.578125 -10.78125 C 16.878906 -9.375 18.550781 -8.671875 20.59375 -8.671875 Z M 20.59375 -8.671875 "/></g></g></g><g fill="#000000" fill-opacity="1"><g transform="translate(224.842606, 208.354116)"><g><path d="M 37.578125 -16.5 C 37.578125 -16.414062 37.515625 -15.457031 37.390625 -13.625 L 13.3125 -13.625 C 13.800781 -11.914062 14.75 -10.601562 16.15625 -9.6875 C 17.5625 -8.769531 19.320312 -8.3125 21.4375 -8.3125 C 23.03125 -8.3125 24.40625 -8.535156 25.5625 -8.984375 C 26.726562 -9.429688 27.898438 -10.164062 29.078125 -11.1875 L 35.1875 -4.828125 C 31.96875 -1.242188 27.265625 0.546875 21.078125 0.546875 C 17.210938 0.546875 13.8125 -0.179688 10.875 -1.640625 C 7.9375 -3.109375 5.664062 -5.144531 4.0625 -7.75 C 2.457031 -10.363281 1.65625 -13.320312 1.65625 -16.625 C 1.65625 -19.875 2.4375 -22.789062 4 -25.375 C 5.570312 -27.96875 7.738281 -29.992188 10.5 -31.453125 C 13.269531 -32.921875 16.390625 -33.65625 19.859375 -33.65625 C 23.148438 -33.65625 26.140625 -32.972656 28.828125 -31.609375 C 31.523438 -30.242188 33.65625 -28.269531 35.21875 -25.6875 C 36.789062 -23.101562 37.578125 -20.039062 37.578125 -16.5 Z M 19.921875 -25.421875 C 18.128906 -25.421875 16.628906 -24.910156 15.421875 -23.890625 C 14.222656 -22.867188 13.460938 -21.484375 13.140625 -19.734375 L 26.703125 -19.734375 C 26.367188 -21.484375 25.601562 -22.867188 24.40625 -23.890625 C 23.207031 -24.910156 21.710938 -25.421875 19.921875 -25.421875 Z M 19.921875 -25.421875 "/></g></g></g><g fill="#000000" fill-opacity="1"><g transform="translate(257.83358, 208.354116)"><g><path d="M 14.78125 -29.140625 C 15.96875 -30.648438 17.503906 -31.78125 19.390625 -32.53125 C 21.285156 -33.28125 23.457031 -33.65625 25.90625 -33.65625 L 25.90625 -23.21875 C 24.84375 -23.34375 23.96875 -23.40625 23.28125 -23.40625 C 20.789062 -23.40625 18.84375 -22.726562 17.4375 -21.375 C 16.03125 -20.03125 15.328125 -17.976562 15.328125 -15.21875 L 15.328125 0 L 3.734375 0 L 3.734375 -33.109375 L 14.78125 -33.109375 Z M 14.78125 -29.140625 "/></g></g></g><g fill="#000000" fill-opacity="1"><g transform="translate(305.626412, 201.924717)"><g><path d="M 27.921875 -27.921875 L 27.921875 -11.734375 C 27.921875 -8.035156 26.773438 -5.101562 24.484375 -2.9375 C 22.203125 -0.769531 19.109375 0.3125 15.203125 0.3125 C 11.265625 0.3125 8.128906 -0.769531 5.796875 -2.9375 C 3.472656 -5.101562 2.3125 -8.035156 2.3125 -11.734375 L 2.3125 -27.921875 L 9.421875 -27.921875 L 9.421875 -11.734375 C 9.421875 -9.867188 9.957031 -8.382812 11.03125 -7.28125 C 12.101562 -6.175781 13.503906 -5.625 15.234375 -5.625 C 16.941406 -5.625 18.304688 -6.164062 19.328125 -7.25 C 20.347656 -8.34375 20.859375 -9.835938 20.859375 -11.734375 L 20.859375 -27.921875 Z M 27.921875 -27.921875 "/></g></g></g><g fill="#000000" fill-opacity="1"><g transform="translate(338.578116, 201.924717)"><g><path d="M 9.890625 0 L 2.796875 0 L 2.796875 -27.921875 L 9.890625 -27.921875 Z M 9.890625 0 "/></g></g></g></svg>